HIERARCHY
ROOT Hips
{
    OFFSET   0.000000   0.000000   0.000000
    CHANNELS 6 Xposition Yposition Zposition Zrotation Xrotation Yrotation
    JOINT Chest
    {
        OFFSET   0.000000   8.007230   0.000000
        CHANNELS 3 Zrotation Xrotation Yrotation
        JOINT Chest2
        {
            OFFSET   0.000000  22.077100   0.000000
            CHANNELS 3 Zrotation Xrotation Yrotation
            JOINT Neck
            {
                OFFSET   0.000000  23.255100   0.000000
                CHANNELS 3 Zrotation Xrotation Yrotation
                JOINT Head
                {
                    OFFSET   0.000000  14.370100   1.956600
                    CHANNELS 3 Zrotation Xrotation Yrotation
                    End Site
                    {
                        OFFSET   0.000000  19.566000   0.000000
                    }
                }
            }
            JOINT LeftCollar
            {
                OFFSET   3.911900  19.017000  -0.467063
                CHANNELS 3 Zrotation Xrotation Yrotation
                JOINT LeftShoulder
                {
                    OFFSET  10.383700   0.000000   0.000000
                    CHANNELS 3 Zrotation Xrotation Yrotation
                    JOINT LeftElbow
                    {
                        OFFSET  26.662100   0.001193   0.000980
                        CHANNELS 3 Zrotation Xrotation Yrotation
                        JOINT LeftWrist
                        {
                            OFFSET  28.869000  -0.000059  -0.000082
                            CHANNELS 3 Zrotation Xrotation Yrotation
                            JOINT LeftFinger0
                            {
                                OFFSET   2.044650  -2.323450   3.252850
                                CHANNELS 3 Zrotation Xrotation Yrotation
                                JOINT LeftFinger01
                                {
                                    OFFSET   3.088130   0.000000   0.000000
                                    CHANNELS 3 Zrotation Xrotation Yrotation
                                    JOINT LeftFinger02
                                    {
                                        OFFSET   2.639460   0.000000   0.000000
                                        CHANNELS 3 Zrotation Xrotation Yrotation
                                        End Site
                                        {
                                            OFFSET   2.582190   0.000000   0.000000
                                        }
                                    }
                                }
                            }
                            JOINT LeftFinger1
                            {
                                OFFSET   8.364480   0.000000   3.252850
                                CHANNELS 3 Zrotation Xrotation Yrotation
                                JOINT LeftFinger11
                                {
                                    OFFSET   4.646930   0.000000   0.000000
                                    CHANNELS 3 Zrotation Xrotation Yrotation
                                    JOINT LeftFinger12
                                    {
                                        OFFSET   2.323470   0.000000   0.000000
                                        CHANNELS 3 Zrotation Xrotation Yrotation
                                        End Site
                                        {
                                            OFFSET   2.273050   0.000000   0.000000
                                        }
                                    }
                                }
                            }
                            JOINT LeftFinger2
                            {
                                OFFSET   8.364490   0.000016   1.078090
                                CHANNELS 3 Zrotation Xrotation Yrotation
                                JOINT LeftFinger21
                                {
                                    OFFSET   5.111610   0.000000   0.000000
                                    CHANNELS 3 Zrotation Xrotation Yrotation
                                    JOINT LeftFinger22
                                    {
                                        OFFSET   2.788150   0.000016   0.000000
                                        CHANNELS 3 Zrotation Xrotation Yrotation
                                        End Site
                                        {
                                            OFFSET   2.727660   0.000000   0.000000
                                        }
                                    }
                                }
                            }
                            JOINT LeftFinger3
                            {
                                OFFSET   7.899780   0.000015  -1.078090
                                CHANNELS 3 Zrotation Xrotation Yrotation
                                JOINT LeftFinger31
                                {
                                    OFFSET   4.646930   0.000000   0.000000
                                    CHANNELS 3 Zrotation Xrotation Yrotation
                                    JOINT LeftFinger32
                                    {
                                        OFFSET   2.323470   0.000000   0.000000
                                        CHANNELS 3 Zrotation Xrotation Yrotation
                                        End Site
                                        {
                                            OFFSET   2.273050   0.000000   0.000000
                                        }
                                    }
                                }
                            }
                            JOINT LeftFinger4
                            {
                                OFFSET   7.435090   0.000000  -3.252850
                                CHANNELS 3 Zrotation Xrotation Yrotation
                                JOINT LeftFinger41
                                {
                                    OFFSET   3.717550   0.000000   0.000000
                                    CHANNELS 3 Zrotation Xrotation Yrotation
                                    JOINT LeftFinger42
                                    {
                                        OFFSET   1.858770   0.000000   0.000000
                                        CHANNELS 3 Zrotation Xrotation Yrotation
                                        End Site
                                        {
                                            OFFSET   1.818440   0.000000   0.000000
                                        }
                                    }
                                }
                            }
                        }
                    }
                }
            }
            JOINT RightCollar
            {
                OFFSET  -3.911910  19.017000  -0.467062
                CHANNELS 3 Zrotation Xrotation Yrotation
                JOINT RightShoulder
                {
                    OFFSET -10.383700   0.000014   0.000000
                    CHANNELS 3 Zrotation Xrotation Yrotation
                    JOINT RightElbow
                    {
                        OFFSET -26.662100   0.001225   0.001091
                        CHANNELS 3 Zrotation Xrotation Yrotation
                        JOINT RightWrist
                        {
                            OFFSET -28.869000  -0.000020  -0.000085
                            CHANNELS 3 Zrotation Xrotation Yrotation
                            JOINT RightFinger0
                            {
                                OFFSET  -2.044650  -2.323490   3.252850
                                CHANNELS 3 Zrotation Xrotation Yrotation
                                JOINT RightFinger01
                                {
                                    OFFSET  -3.088130   0.000000   0.000000
                                    CHANNELS 3 Zrotation Xrotation Yrotation
                                    JOINT RightFinger02
                                    {
                                        OFFSET  -2.639460   0.000000   0.000000
                                        CHANNELS 3 Zrotation Xrotation Yrotation
                                        End Site
                                        {
                                            OFFSET  -2.582190   0.000000   0.000000
                                        }
                                    }
                                }
                            }
                            JOINT RightFinger1
                            {
                                OFFSET  -8.364480   0.000000   3.252850
                                CHANNELS 3 Zrotation Xrotation Yrotation
                                JOINT RightFinger11
                                {
                                    OFFSET  -4.646930   0.000000   0.000000
                                    CHANNELS 3 Zrotation Xrotation Yrotation
                                    JOINT RightFinger12
                                    {
                                        OFFSET  -2.323470   0.000000   0.000000
                                        CHANNELS 3 Zrotation Xrotation Yrotation
                                        End Site
                                        {
                                            OFFSET  -2.273050   0.000000   0.000000
                                        }
                                    }
                                }
                            }
                            JOINT RightFinger2
                            {
                                OFFSET  -8.364480   0.000000   1.078090
                                CHANNELS 3 Zrotation Xrotation Yrotation
                                JOINT RightFinger21
                                {
                                    OFFSET  -5.111620   0.000000   0.000000
                                    CHANNELS 3 Zrotation Xrotation Yrotation
                                    JOINT RightFinger22
                                    {
                                        OFFSET  -2.788160   0.000000   0.000000
                                        CHANNELS 3 Zrotation Xrotation Yrotation
                                        End Site
                                        {
                                            OFFSET  -2.727660   0.000000   0.000000
                                        }
                                    }
                                }
                            }
                            JOINT RightFinger3
                            {
                                OFFSET  -7.899780   0.000000  -1.078090
                                CHANNELS 3 Zrotation Xrotation Yrotation
                                JOINT RightFinger31
                                {
                                    OFFSET  -4.646930   0.000000   0.000000
                                    CHANNELS 3 Zrotation Xrotation Yrotation
                                    JOINT RightFinger32
                                    {
                                        OFFSET  -2.323470   0.000000   0.000000
                                        CHANNELS 3 Zrotation Xrotation Yrotation
                                        End Site
                                        {
                                            OFFSET  -2.273050   0.000000   0.000000
                                        }
                                    }
                                }
                            }
                            JOINT RightFinger4
                            {
                                OFFSET  -7.435090   0.000000  -3.252850
                                CHANNELS 3 Zrotation Xrotation Yrotation
                                JOINT RightFinger41
                                {
                                    OFFSET  -3.717550   0.000000   0.000000
                                    CHANNELS 3 Zrotation Xrotation Yrotation
                                    JOINT RightFinger42
                                    {
                                        OFFSET  -1.858760   0.000000   0.000000
                                        CHANNELS 3 Zrotation Xrotation Yrotation
                                        End Site
                                        {
                                            OFFSET  -1.818440   0.000000   0.000000
                                        }
                                    }
                                }
                            }
                        }
                    }
                }
            }
        }
    }
    JOINT LeftHip
    {
        OFFSET   9.783030   0.000000   0.000000
        CHANNELS 3 Zrotation Xrotation Yrotation
        JOINT LeftKnee
        {
            OFFSET   0.000063 -41.789100   0.000608
            CHANNELS 3 Zrotation Xrotation Yrotation
            JOINT LeftAnkle
            {
                OFFSET   0.000048 -41.133200  -0.000184
                CHANNELS 3 Zrotation Xrotation Yrotation
                JOINT LeftToe
                {
                    OFFSET   0.000000  -6.358960  14.674500
                    CHANNELS 3 Zrotation Xrotation Yrotation
                    End Site
                    {
                        OFFSET   0.000000   0.000000   3.913200
                    }
                }
            }
        }
    }
    JOINT RightHip
    {
        OFFSET  -9.783030   0.000000   0.000000
        CHANNELS 3 Zrotation Xrotation Yrotation
        JOINT RightKnee
        {
            OFFSET   0.000071 -41.789100   0.001239
            CHANNELS 3 Zrotation Xrotation Yrotation
            JOINT RightAnkle
            {
                OFFSET   0.000037 -41.133200  -0.000166
                CHANNELS 3 Zrotation Xrotation Yrotation
                JOINT RightToe
                {
                    OFFSET   0.000000  -6.358960  14.674500
                    CHANNELS 3 Zrotation Xrotation Yrotation
                    End Site
                    {
                        OFFSET   0.000000   0.000000   3.913200
                    }
                }
            }
        }
    }
}
MOTION
Frames: 4
Frame Time:   0.016667
 -0.775136  89.358600  -1.436370 -10.192800  -7.152600 -31.106900   0.148119   5.134460  -1.557550   0.442032  10.263000  -3.147560   5.260740   0.733365  -0.070311   8.646490   1.449630  11.365100  -0.965847   1.759930  -1.532680 -72.430600  22.357100  -6.181880   0.905016  -2.948700 -20.968400  18.062000 -14.794700   7.808410  38.969800  28.993300 -54.511800 -29.922900   0.016483   0.009588  -9.961510   0.011293  -0.043636 -31.621900   6.123180  -9.827650 -26.304100   0.011832  -0.027254 -18.412800   0.021751  -0.004398 -28.158400  -2.103440   3.922700 -33.647400   0.019372  -0.019758 -22.409100   0.019453   0.008006 -28.437200  -2.122500   3.912450 -36.264000   0.012368  -0.029278 -24.151800   0.023074  -0.005973 -29.378800  -2.186620   3.877160 -44.179900  -0.006938  -0.007310 -29.423700  -0.004190  -0.006216   4.361310  -6.722330  -0.503326  -6.763490 -19.949100  45.805500 -38.202400  -8.214430  35.881100  32.561100  -8.918230  19.668300 -39.110200  34.391500  68.458700  31.350100   0.004770  -0.002664  10.675000   0.000000   0.005986  11.538600   3.137510  14.989200   9.783120   0.002112  -0.000671   6.848170   0.000928   0.000263  12.613000   3.424230  14.927200  13.065100  -0.001908   0.001290   8.701380   0.002134  -0.000544   6.204010   1.695470  15.213400   6.433440  -0.001808   0.002486   4.284670   0.003499   0.001115  13.204400   2.171520   9.173670  20.068400  -0.000331  -0.005075  13.365500   0.001205  -0.000650   4.395920  17.449900   8.521410   1.136960   0.458793  24.299800  -2.038300  -7.230600   8.974090   0.000000   0.000000  -0.000000   5.343530   7.828700  -2.529500  -2.113250   3.495220   2.360080   1.774010  -0.505251  10.728400  -0.000000   0.000000   0.000000
 -0.754250  89.363800  -1.437450 -10.173800  -7.221410 -30.818000   0.136072   5.136680  -1.461350   0.406714  10.268200  -2.952880   5.290550   0.714569  -0.070015   8.695280   1.411810  11.161300  -1.002080   1.671270  -1.522470 -72.476400  22.427600  -6.291130   1.020350  -2.875520 -21.138300  18.155800 -14.809200   7.851800  38.974900  29.016800 -54.478200 -29.931000   0.030474   0.017610  -9.965530   0.015476  -0.075268 -31.690300   6.072040  -9.721950 -26.352000   0.027597  -0.072858 -18.446400   0.056265  -0.015767 -28.159900  -2.149870   4.008710 -33.686500   0.044249  -0.052123 -22.435200   0.049392   0.013933 -28.444700  -2.169790   3.997990 -36.392700   0.020683  -0.071998 -24.237500   0.052398  -0.020249 -29.421300  -2.237700   3.960560 -44.249100  -0.015063  -0.012041 -29.469800  -0.004358  -0.011273   4.362410  -6.806870  -0.405074  -6.834750 -19.633200  46.256000 -38.291400  -8.657910  35.385900  32.437700 -10.047800  20.546300 -39.411300  34.738800  68.500400  31.350000   0.004764  -0.002791  10.675000   0.000000   0.005987  11.556100   3.087540  14.732500   9.785520   0.002134  -0.000704   6.849840   0.000861   0.000248  12.745100   3.397640  14.664900  13.187100  -0.001520   0.001337   8.782610   0.002134  -0.000588   6.346790   1.705770  14.949700   6.575270  -0.001680   0.002911   4.379140   0.003444   0.001426  13.259900   2.174130   9.148520  20.151500  -0.000354  -0.005060  13.420900   0.000749  -0.000634   4.436850  17.419000   8.517910   1.137330   0.473203  24.203700  -2.042580  -7.200320   8.776170  -0.000000   0.000000   0.000000   5.360580   7.856860  -2.533410  -2.134830   3.526330   2.320850   1.760510  -0.529141  10.488800   0.000000   0.000000   0.000000
 -0.729814  89.367900  -1.437230 -10.160400  -7.290060 -30.552200   0.128976   5.141550  -1.365970   0.381792  10.278500  -2.760400   5.310320   0.696917  -0.069729   8.726100   1.376630  10.994700  -1.044130   1.586510  -1.503200 -72.538200  22.508800  -6.395560   1.112790  -2.834190 -21.254600  18.219500 -14.854500   7.868940  38.950500  28.932500 -54.354300 -29.923300   0.039476   0.022774  -9.961680   0.016710  -0.080581 -31.750400   6.008700  -9.601880 -26.388900   0.038808  -0.115056 -18.472200   0.085783  -0.029397 -28.158700  -2.194320   4.091430 -33.702700   0.058594  -0.082056 -22.446100   0.074414   0.013450 -28.449800  -2.215110   4.080240 -36.492200   0.020385  -0.107066 -24.303700   0.072005  -0.037006 -29.453300  -2.286300   4.040950 -44.302200  -0.019299  -0.012008 -29.505200  -0.004518  -0.012366   4.354840  -6.894120  -0.293956  -6.912750 -19.410000  46.681600 -38.257200  -9.027770  34.835500  32.380800 -10.998800  21.201800 -39.609300  35.077000  68.489000  31.482000   0.004761  -0.002798  10.741000   0.000000   0.005984  11.630000   3.009260  14.289000   9.823130   0.002169  -0.000734   6.876180   0.000786   0.000213  12.916300   3.332170  14.218400  13.327400  -0.001115   0.001388   8.876010   0.002144  -0.000626   6.524460   1.699440  14.498300   6.745490  -0.001550   0.003318   4.492490   0.003393   0.001776  13.399200   2.182740   9.087140  20.359600  -0.000349  -0.005061  13.559500   0.000363  -0.000627   4.471420  17.385900   8.508040   1.143600   0.502431  24.115100  -2.046170  -7.176500   8.598560  -0.000000   0.000000  -0.000000   5.374950   7.893160  -2.539660  -2.153540   3.550280   2.285180   1.751780  -0.547163  10.269600   0.000000   0.000000   0.000000
 -0.703971  89.370500  -1.436620 -10.147600  -7.356290 -30.298300   0.123613   5.147000  -1.276040   0.365062  10.289900  -2.579130   5.318270   0.681743  -0.069477   8.740170   1.346380  10.914000  -1.087880   1.510750  -1.481430 -72.624300  22.582400  -6.452010   1.159680  -2.812450 -21.301300  18.245700 -14.899600   7.873120  38.914300  28.843500 -54.238000 -29.915600   0.043810   0.025256  -9.957820   0.016886  -0.081340 -31.790200   5.942650  -9.483090 -26.414300   0.044604  -0.139615 -18.490000   0.102457  -0.039580 -28.156400  -2.238510   4.173860 -33.709700   0.065040  -0.099465 -22.450800   0.088379   0.010073 -28.452300  -2.260070   4.162260 -36.560100   0.018305  -0.126576 -24.348900   0.081770  -0.049745 -29.476700  -2.334220   4.121310 -44.342200  -0.021018  -0.011779 -29.531900  -0.004670  -0.012522   4.342460  -6.983390  -0.181717  -6.993280 -19.253900  47.078900 -38.272800  -9.234050  34.227200  32.264300 -11.568000  21.505200 -39.765600  35.409800  68.508200  31.713200   0.004760  -0.002804  10.856600   0.000000   0.005981  11.709100   2.917760  13.782200   9.871870   0.002215  -0.000767   6.910320   0.000709   0.000181  13.042600   3.244080  13.710500  13.436500  -0.000699   0.001430   8.948670   0.002166  -0.000664   6.688300   1.677500  13.983300   6.897910  -0.001399   0.003709   4.593990   0.003342   0.002138  13.546400   2.192330   9.022500  20.579400  -0.000327  -0.005064  13.705900   0.000066  -0.000625   4.503320  17.358400   8.488500   1.148750   0.522974  24.019900  -2.045490  -7.149470   8.447920   0.000000   0.000000  -0.000000   5.383060   7.932900  -2.543980  -2.161470   3.565330   2.239590   1.743180  -0.562262  10.071200  -0.000000   0.000000   0.000000
